<?xml version="1.0" encoding="UTF-8"?><svg xmlns="http://www.w3.org/2000/svg" viewBox="0 0 509.14 680.79"><defs><style>.g{stroke:#7973f4;}.g,.h,.i,.j,.k{stroke-miterlimit:10;}.g,.l,.k{fill:#0f5fa6;}.m{fill:#fff;}.h{fill:#1989dd;}.h,.i,.j,.k{stroke:#0f5fa6;}.i{stroke-width:5px;}.i,.j{fill:none;}.n{opacity:.41;}.o{fill:#f2762e;}</style></defs><g id="a"/><g id="b"><g id="c"><rect class="m" width="509.14" height="680.79"/><g id="d"><g id="e"><path class="l" d="M410.84,468.48c-6.75,8.68-34.23,7.88-34.23,7.88l-6.75,7.18s-9.86-12.32-10.39-12.32l7.34-3.54s1.77-4.98,3.53-7.23c1.77-2.25,4.18-2.57,9.81,0,5.62,2.57,18.48,2.73,26.52,3.37,8.03,.65,4.17,4.66,4.17,4.66Z"/><path class="h" d="M366.73,430.89c-.15-.53-.32-.79-.51-.71-15.44,10.86-39.19,8.5-44.25,7.85,9.7-3.8,31.78-12.65,37.5-16.64,2.91-2.02,5.14-5.04,6.77-7.96l.49,17.46Z"/><path class="j" d="M321.97,438.03c-.63-.09-.97-.14-.97-.14"/><path class="j" d="M366.73,430.89v.02c1.41,5.44-.18,38.99-11.87,44.06l-33.86,28.07"/><path class="j" d="M314.14,443.26l4.71,2.79-25.29,21.86s-15.79,13.5-19.79,30.21,1.14,26.57,1.14,26.57c0,0,9,14.14,33.64,3.21,24.64-10.93,52.5-31.71,52.5-31.71l8.36-8.54,.43-4.11"/><path class="j" d="M305.73,431.95l-52.45,48.16s-9,8.14-8.57,22.93,6.21,18.64,15.64,18.64,13.43-.04,13.43-.04"/><path class="j" d="M369.86,363.62v41.06s-1.1,4.25-3.62,8.74h0c-1.63,2.93-3.86,5.95-6.77,7.97-5.72,3.99-27.8,12.84-37.5,16.64-2.83,1.11-4.61,1.79-4.61,1.79l-2.77,3.69-1.66,2.22-6.02,8.02s-2.73,1.02-2.46-1.23c0,0-.51,.58-1.37,1.26,0,.01-.03,.02-.04,.03-1.1,.87-2.74,1.88-4.59,2.03-3.32,.27-4.18-.96-4.18-.96,0,0-2.51-.59-1.1-2.34,.06-.1,.14-.19,.24-.29,0,0-2.67,2.36-6.32,.43,0,0-2.68-2.46,3.97-4.13,6.64-1.66,10.82-8.78,10.82-8.78,0,0,3.48-5.36,3.86-7.82,.37-2.47-7.07-4.39-7.07-4.39,0,0-1.72-1.02-1.72-2.9s4.29-.91,4.29-.91c0,0,1.96,.6,4.5,1.27,3.38,.9,7.81,1.91,10.07,1.79,3.96-.22,11.3-5.09,11.3-5.09,0,0,15.75-12.22,22.98-21.06l-.48-49.82s-1.04-10.2,6.51-10.45c4.9-.16,8.18,3.21,9.88,5.59,.91,1.29,1.37,2.29,1.37,2.29,0,0,1.61,3.05,2.49,15.35Z"/><path class="j" d="M306.75,442.45s-7.67,10.27-13.59,10.09"/><path class="j" d="M312,444.01s-6.29,7.3-8.96,9.81"/><line class="j" x1="366.73" y1="430.91" x2="366.73" y2="430.89"/><line class="j" x1="366.24" y1="413.43" x2="366.24" y2="413.42"/><path class="h" d="M366,345.98c-1.7-2.38-4.98-5.75-9.88-5.59-7.55,.25-6.51,10.45-6.51,10.45l.48,49.82c-7.23,8.84-22.98,21.06-22.98,21.06,0,0-7.34,4.87-11.3,5.09-2.26,.12-6.69-.89-10.07-1.79,0,0-.59-23.13-3.81-30.2-1.74-3.84-4.37-13.36-6.41-21.26-1.72-6.66-3.02-12.17-3.02-12.17v-21s7.93-12.85,23.79-13.71c0,0,.05,2.95,2.3,7.12,2.25,4.18,5.15,2.42,5.15,2.42,0,0,8.03-5.63,9.48-7.4,1.45-1.76,0-4.98,0-4.98,0,0,27.78,4.26,32.78,22.14Z"/><path class="j" d="M333.22,323.84l-1.27-19.55v-.14l-.28-4.06v-.17l-.06-.83v3.7c-2.05,9.24-9.35,14.92-13.41,17.44,0,0-.04,.02-.14,.08-1.58,.97-2.63,1.44-2.63,1.44l.86,4.93"/><polyline class="j" points="292.5 340.39 275.84 364.34 269.79 369.97"/><path class="j" d="M295.52,373.56s-15.82,18.1-23.37,19.71-18.96,1.54-19.93-15.06,1.61-49.87,1.61-49.87l-3.38-3.86,13.18-13.82-4.5-4.34s-1.31-3.74,1.02-3.96c0,0,6.32-1.93,9.64,5.25,0,0-.54,12.86-3.43,16.23l.48,17.52,2.95,33.43"/><path class="j" d="M249.16,325.29l-3.86,3.7s-9.48-.8-6.43-7.07l6.43-5.95,.6-4.73,.04-.3,.32-2.52s.48-3.86,2.89-3.05,6.11,4.34,5.95,7.55-4.02,1.61-4.02,1.61l-4.4-3.54"/><path class="j" d="M238.87,321.92s7.88-.48,6.43,7.07"/><path class="j" d="M247.47,305.25s.99-2.02,2.81-2.28c.61-.09,1.3,.02,2.09,.46,2.63,1.48,5.38,3.82,5.81,5.48,.08,.32,.08,.61-.02,.87-.64,1.61-2.08,2.25-3.05,2.65"/><path class="j" d="M258.24,309.38s2.57-2.35-.88-6.44-4.5-3.13-4.5-3.13c0,0-1.93,.52-1.85,2.31s0,.82,0,.82"/><path class="j" d="M253.5,299.72s2.49-3.68,5.3-1.19,2.63,3.62,2.63,3.62"/><line class="j" x1="260.19" y1="299.91" x2="266.36" y2="295.08"/><line class="j" x1="267.5" y1="304.31" x2="272.06" y2="299.91"/><path class="j" d="M305.25,284.47s.75,3.11,3.96,3.21,4.18-3.21,4.18-3.21"/><path class="j" d="M285.64,303.22s-.75,5.89,2.68,11.25,9.89,14.72,19.07,10.71,10.81-4.95,10.81-4.95"/><ellipse class="j" cx="298.68" cy="308.74" rx="2.32" ry="4.98"/><ellipse class="k" cx="289.96" cy="283.93" rx="1.18" ry="4.39"/><path class="j" d="M303,272.68s1.53-3.12,5.68-3.64c5.89-.75,8.57,5.36,8.57,5.36"/><path class="j" d="M296.89,276.65s-4.13,13.82-.89,18.43"/><path class="j" d="M285.57,301.37c-2.21-7.21,1.25-27.82,1.25-27.82,0,0,8.36-11.89,22.07-11.68,13.71,.21,18,8.79,18,8.79,0,0,3.86,5.04,4.61,15.43,0,0,7.61-5.68,12.32-.22s-5.25,13.86-5.25,13.86c0,0-7.61,3.11-8.46-2.05"/><line class="j" x1="270.64" y1="284.47" x2="291.14" y2="272.26"/><line class="j" x1="272.06" y1="292.61" x2="289.24" y2="280.49"/><path class="j" d="M283.93,273.54s1.18-3.54,3.86-3.75,5.25,1.18,6.11,3.75"/><path class="h" d="M331.94,304.29s10.91-2.36,16.27-8.14,7.07-8.46,7.07-8.46c0,0,3.54-4.5,.96-9.75s1.93-10.5,1.93-10.5l3.75-12s-1.18,3.32-6.96,2.89c0,0-2.04-3.11,.54-6.86s-.54-12.75-.54-12.75c0,0-.11,7.82-4.29,9.11s-5.25-2.04-4.71-4.71,2.89-10.39,.43-15.32c0,0-2.25,11.89-10.61,12s-5.36-4.39-5.36-4.39l1.18-6.43s-8.79,12.54-15.86,13.71c0,0-6.16,3.7-13.88,3.86s-15.27,10.87-14.95,15.32c0,0-.8,10.81-.11,11.68,0,0,9.02-13.41,25.41-11.45,16.4,1.96,17.07,14.26,19.26,23.98,0,0,6.97-4.07,9.64-2.14s6.9,4.47,1.65,11.14-6.53,5.41-11.19,4.83l.34,4.38Z"/><circle class="k" cx="109.07" cy="367.41" r="5.35"/><circle class="k" cx="406.41" cy="334.34" r="5.35"/><circle class="k" cx="103.71" cy="251.36" r="4.18"/><circle class="k" cx="258.75" cy="438.27" r="4.18"/><circle class="k" cx="440.22" cy="400.98" r="2.84"/><circle class="g" cx="372.7" cy="208.99" r="2.84"/><circle class="k" cx="235.43" cy="383.6" r="2.84"/><circle class="k" cx="82.13" cy="453.82" r="2.84"/><path class="o" d="M219.63,272.1l15.9,13.54,2.3,1.96-.1-.76-10.42,15.25-16.61,24.29-3.81,5.57,1.14,.15-4.64-18.25-7.37-28.96-1.7-6.68c-.2-.78-1.4-.45-1.21,.33l4.64,18.25,7.37,28.96,1.7,6.68,1.14-.48-11.31-15.51-17.87-24.5-4.15-5.69-.37,.92,19.7-7.86c.33-.13,.52-.41,.44-.77l-1.53-7.04-.6,.79h25.43c.58,0,1.21,.07,1.79,0,.68-.09,1.35-.46,1.99-.7l9.02-3.44c.63-.24,.58-1.23-.17-1.23l-15.68,.11-25.14,.18-5.75,.04c-.58,0-.91,.9-.32,1.16l8.52,3.78,.48-1.14-8.6-3.5c-.24-.1-.59,.06-.71,.29l-9.56,18.39c-.37,.71,.71,1.35,1.08,.63l9.56-18.39-.71,.29,8.6,3.5c.65,.26,1.13-.86,.48-1.14l-8.52-3.78-.32,1.16,15.68-.11,25.14-.18,5.75-.04-.17-1.23-7.86,3c-.94,.36-1.93,.88-2.91,1.11,.27-.06,0-.01-.15-.01-.35,0-.7,0-1.05,0h-25.93c-.42,0-.69,.4-.6,.79l1.53,7.04,.44-.77-19.7,7.86c-.34,.13-.64,.56-.37,.92l11.31,15.51,17.87,24.5,4.15,5.69c.4,.55,1.33,.24,1.14-.48l-4.64-18.25-7.37-28.96-1.7-6.68c-.2-.78-1.4-.45-1.21,.33l4.64,18.25,7.37,28.96,1.7,6.68c.14,.55,.85,.57,1.14,.15l10.42-15.25,16.61-24.29,3.81-5.57c.14-.21,.1-.59-.1-.76l-15.9-13.54-2.3-1.96c-.61-.52-1.5,.36-.88,.88h0Z"/><path class="o" d="M238.87,286.98l-7.94-19.61c-.12-.29-.42-.56-.77-.44l-11.43,4.12c-.28,.1-.43,.31-.46,.6-.2,2.15-.42,4.29-.61,6.44-.05,.54,.02,.01-.06,.46-.07,.37-.15,.73-.22,1.1l-2.27,11.18-6.61,32.55-1.66,8.18c-.16,.79,1.05,1.12,1.21,.33l4.47-22,5.95-29.25c.6-2.96,.79-5.96,1.07-8.97l-.46,.6,11.43-4.12-.77-.44,7.94,19.61c.3,.74,1.51,.41,1.21-.33h0Z"/><path class="o" d="M238.58,286.61l-18.51-8.03c-.58-.25-1.23-.65-1.86-.74-.88-.12-1.88,.02-2.76,.03l-12.39,.11-9.26,.08c-.8,0-.81,1.26,0,1.25l20.2-.18c1.26-.01,2.53,.03,3.79-.03,.32-.02,.64,.08,.17-.08,.27,.09,.54,.23,.8,.35l10.22,4.43,8.98,3.89c.73,.32,1.37-.76,.63-1.08h0Z"/><line class="j" x1="217.18" y1="249.97" x2="220.18" y2="237.43"/><line class="j" x1="223.71" y1="249.97" x2="234.86" y2="240.43"/><line class="j" x1="230.68" y1="255.76" x2="242.79" y2="254.68"/><ellipse class="i" cx="281.97" cy="281.99" rx="19.04" ry="19.38"/></g><g id="f" class="n"><path class="j" d="M414.86,545.47s-79.38-8.79-93.8-6.86-31.13,9.43-31.13,9.43"/><path class="j" d="M415.93,509.68s-53.49-8.43-71.85-1.75"/><path class="j" d="M401.36,507.52s-.21-12.19,4.29-9.19c0,0,5.36-11.5,8.36-10.68,0,0,9.64-14.82,11.79-15.04s-9.86,22.29-9.86,22.29l7.07-9.21s-8.19,23.8-11.24,23.39"/><polyline class="j" points="150.64 558.54 164.14 551.26 172.29 546.11 199.29 554.9"/><path class="j" d="M190.93,559.83s10.93-7.29,16.5-5.79,11.57,3.01,14.57,2.79c.89-.06,2.21-.3,3.7-.53,3.55-.56,8.06-1.12,10.02,.53,2.79,2.35,7.5,0,7.5,0"/><path class="j" d="M226.29,558.54l-16.07-50.57v7.29l-3.21-9s-4.5,10.29,0,21.86-16.07-47.14-16.07-47.14l-.86,12,1.93,3.21-4.29-4.93s3.21,28.29,8.36,32.57c0,0-5.57-1.07-1.29,4.93s7.71,10.93,7.71,10.93c0,0-5.57-1.5-3.21,1.5s9.4,13.19,9.4,13.19"/><polyline class="j" points="69.86 497.04 76.93 489.33 87.43 488.04 95.36 483.97 135.86 497.04"/><path class="j" d="M140.57,490.51s-10.59-2.16-13.87,3.58"/><path class="j" d="M85.07,532.13s16.07-10.29,32.79-9.64c16.71,.64,20.09,6.43,28.45,3.86,8.36-2.57,13.82-2.89,18.16-1.77s10.5,.8,10.5,.8"/><path class="j" d="M150.43,490.51s-11.57-10.98-9.86-13.69-5.14-7.42-2.79-8.28-9.64-24.43-9.64-24.43l31.29,46-27.43-47.66h3.86s-13.59-30.7-9.15-33.27,24.15,53.36,24.15,53.36l-4.93-21.64,7.07,12.92-3-14.63,23.57,46.5"/><path class="j" d="M174.86,480.97s2.79-5.73,9.21-4.15,48.52,10.15,48.52,10.15"/><path class="j" d="M248.84,482.79l-12.38-1.04s-6.84,3.7-6.79,4.62"/><path class="j" d="M275.22,458.68l-27.34-1.93s-6.43,.16-13.82,6.27c-7.39,6.11-14.3,11.09-14.3,11.09"/><polyline class="j" points="209.79 452.54 187.71 449.8 176.04 453.38"/><path class="j" d="M179.73,417.06l6.91,1.12,4.34,1.45,7.88-1.29h4.87l3.28,1.29,5.36-1.29h3.86s2.25-.32,2.73,0,5.95,0,5.95,0"/><path class="j" d="M163.98,234.17s2.09,13.45,8.68,15.8c0,0-10.29,8.62-8.68,14.73,0,0-4.34-15.16-9.8-14.73,0,0,10.12-6.64,9.8-15.8Z"/><path class="j" d="M176.36,231.11s.16-4.18,6.11,0,11.34-1.86,11.34-1.86l8.11,2.66,9-2.66,7.77,1.67h4.04"/><path class="j" d="M358.61,299.9s7.88-1.89,10.12,1.47c0,0,4.18-4.52,9.8-2.27s9.16-.63,9.16-.63c0,0,4.98,.82,6.59,1.45s9.15-3.52,12.13,0"/><path class="j" d="M389.14,261.86s1.93-3,9.64,0,10.29-3.1,10.29-3.1c0,0,3.38,3.15,7.07,3.1s6.11-3.59,7.71-3.1,5.95-.05,5.95-.05c0,0-.48,2.17,1.29,1.99s6.59-1.99,6.59-1.99c0,0,4.18,.88,5.3,1.99"/><path class="j" d="M371.57,235.4s7.29,0,12.21,2.57,7.71-2.57,7.71-2.57c0,0,7.07,5.3,10.5,3.29s10.5-6.93,17.14-4.79,10.29-.53,10.29-.53c0,0,11.14-2.47,11.57,3.96"/></g></g></g></g></svg>